<?xml version="1.0" encoding="UTF-8"?> <svg xmlns="http://www.w3.org/2000/svg" width="51" height="51" viewBox="0 0 51 51" fill="none"> <path d="M17 17H34C35.6569 17 37 18.3431 37 20V29C37 30.6569 35.6569 32 34 32H27.9445C26.7723 32 25.6393 32.4226 24.7535 33.1904L21.7172 35.8218C21.0453 36.4041 20 35.9268 20 35.0376C20 33.36 18.64 32 16.9624 32H16C14.8954 32 14 31.1046 14 30V20C14 18.3431 15.3431 17 17 17Z" stroke="white" stroke-width="2"></path> <circle cx="19.5" cy="24.5" r="1.5" fill="white"></circle> <circle cx="25.5" cy="24.5" r="1.5" fill="white"></circle> <circle cx="31.5" cy="24.5" r="1.5" fill="white"></circle> </svg> 