<?xml version="1.0" encoding="UTF-8"?> <svg xmlns="http://www.w3.org/2000/svg" width="691" height="233" viewBox="0 0 691 233" fill="none"> <path d="M17.6918 209.736C14.2198 209.736 11.2851 208.537 8.88781 206.14C6.49048 203.743 5.29181 200.808 5.29181 197.336C5.29181 193.864 6.49048 190.929 8.88781 188.532C11.2851 186.135 14.2198 184.936 17.6918 184.936C21.0811 184.936 23.9745 186.176 26.3718 188.656C28.8518 191.053 30.0918 193.947 30.0918 197.336C30.0918 200.725 28.8518 203.66 26.3718 206.14C23.9745 208.537 21.0811 209.736 17.6918 209.736Z" fill="#0047BB"></path> <path d="M73.5238 95.232C63.5211 95.232 55.4611 92.38 49.3438 86.676C43.2264 80.8893 40.0024 74.152 39.6718 66.464H57.6518C58.3131 70.3493 60.0904 73.3667 62.9838 75.516C65.8771 77.5827 69.3904 78.616 73.5238 78.616C77.2438 78.616 80.2611 77.8307 82.5758 76.26C84.8904 74.6067 86.0478 72.416 86.0478 69.688C86.0478 64.8107 82.1211 61.256 74.2678 59.024L64.9678 56.296C57.7758 54.2293 52.1544 51.0053 48.1038 46.624C44.0531 42.2427 41.9864 36.7867 41.9038 30.256C41.9038 22.2373 44.5904 15.9133 49.9638 11.284C55.3371 6.572 62.4878 4.216 71.4158 4.216C80.4264 4.216 87.7424 6.944 93.3638 12.4C98.9851 17.7733 101.961 23.9733 102.292 31L84.4358 31C83.5264 27.528 81.8731 24.9653 79.4758 23.312C77.0784 21.6587 74.3918 20.832 71.4158 20.832C68.1091 20.832 65.3811 21.576 63.2318 23.064C61.1651 24.4693 60.0904 26.4533 60.0078 29.016C59.9251 31.6613 60.7931 33.8107 62.6118 35.464C64.4304 37.1173 67.2411 38.4813 71.0438 39.556L81.3358 42.408C96.5464 46.624 104.152 55.5107 104.152 69.068C104.152 76.6733 101.3 82.956 95.5958 87.916C89.9744 92.7933 82.6171 95.232 73.5238 95.232Z" fill="white"></path> <path d="M146.546 94.488C139.602 94.488 133.898 92.5867 129.434 88.784C125.053 84.8987 122.862 79.3187 122.862 72.044V46.624H110.338L110.338 31.744L122.862 31.744V14.508L139.85 14.508V31.744H157.334V46.624L139.85 46.624V68.696C139.85 72.4987 140.677 75.2267 142.33 76.88C143.984 78.4507 146.67 79.236 150.39 79.236C153.036 79.236 155.35 78.864 157.334 78.12V93.124C154.358 94.0333 150.762 94.488 146.546 94.488Z" fill="white"></path> <path d="M193.781 95.108C185.597 95.108 178.694 91.9253 173.072 85.56C167.451 79.1947 164.641 71.5893 164.641 62.744C164.641 53.8987 167.451 46.2933 173.072 39.928C178.694 33.5627 185.597 30.38 193.781 30.38C197.749 30.38 201.303 31.2067 204.445 32.86C207.586 34.5133 209.983 36.456 211.637 38.688V31.744L228.624 31.744L228.624 93.744H211.637L211.637 86.8C209.983 89.032 207.586 90.9747 204.445 92.628C201.303 94.2813 197.749 95.108 193.781 95.108ZM185.969 74.896C188.862 78.0373 192.664 79.608 197.376 79.608C202.088 79.608 205.85 78.0373 208.661 74.896C211.554 71.7547 213.001 67.704 213.001 62.744C213.001 57.784 211.554 53.7333 208.661 50.592C205.85 47.4507 202.088 45.88 197.376 45.88C192.664 45.88 188.862 47.4507 185.969 50.592C183.158 53.7333 181.753 57.784 181.753 62.744C181.753 67.704 183.158 71.7547 185.969 74.896Z" fill="white"></path> <path d="M245.14 93.744L245.14 31.744L262.128 31.744V38.812C265.93 33.1907 271.841 30.38 279.86 30.38C287.3 30.38 293.128 32.86 297.344 37.82C301.642 42.6973 303.792 49.228 303.792 57.412V93.744H286.804V60.264C286.804 55.7173 285.853 52.204 283.952 49.724C282.05 47.1613 279.364 45.88 275.892 45.88C271.758 45.88 268.41 47.368 265.848 50.344C263.368 53.32 262.128 57.7013 262.128 63.488V93.744L245.14 93.744Z" fill="white"></path> <path d="M361.654 93.744L336.358 65.224V93.744H319.37V0.743998L336.358 0.743998V54.56L356.446 31.744L376.906 31.744L352.354 59.644L382.61 93.744H361.654Z" fill="white"></path> <path d="M412.918 95.108C403.411 95.108 395.599 92.0493 389.482 85.932C383.447 79.8147 380.43 72.044 380.43 62.62C380.43 53.3613 383.488 45.6733 389.606 39.556C395.806 33.4387 403.618 30.38 413.042 30.38C422.548 30.38 430.443 33.6453 436.726 40.176C443.008 46.624 445.902 55.4693 445.406 66.712L397.046 66.712C397.376 70.5973 398.988 73.8627 401.882 76.508C404.775 79.0707 408.743 80.352 413.786 80.352C416.844 80.352 419.531 79.7733 421.846 78.616C424.243 77.376 425.938 75.6813 426.93 73.532L444.662 73.532C442.843 79.8973 439.04 85.1053 433.254 89.156C427.467 93.124 420.688 95.108 412.918 95.108ZM412.546 44.144C408.66 44.144 405.395 45.1773 402.75 47.244C400.187 49.228 398.492 51.9973 397.666 55.552L426.806 55.552C425.896 51.6667 424.078 48.8147 421.35 46.996C418.704 45.0947 415.77 44.144 412.546 44.144Z" fill="white"></path> <path d="M475.187 93.744L447.783 31.744L466.507 31.744L482.875 71.424L499.243 31.744L518.215 31.744L490.687 93.744H475.187Z" fill="white"></path> <path d="M534.994 21.576C532.1 21.576 529.579 20.5427 527.43 18.476C525.28 16.3267 524.206 13.764 524.206 10.788C524.206 7.812 525.28 5.29067 527.43 3.224C529.579 1.07467 532.1 0 534.994 0C538.052 0 540.615 1.07467 542.682 3.224C544.831 5.29067 545.906 7.812 545.906 10.788C545.906 13.764 544.831 16.3267 542.682 18.476C540.615 20.5427 538.052 21.576 534.994 21.576ZM526.562 93.744V31.744L543.55 31.744V93.744H526.562Z" fill="white"></path> <path d="M588.506 95.108C579.165 95.108 571.394 92.008 565.194 85.808C558.994 79.5253 555.894 71.8373 555.894 62.744C555.894 53.6507 558.994 46.004 565.194 39.804C571.394 33.5213 579.165 30.38 588.506 30.38C596.773 30.38 603.676 32.6947 609.214 37.324C614.836 41.9533 618.514 47.988 620.25 55.428H602.642C599.914 48.98 595.202 45.756 588.506 45.756C583.96 45.756 580.24 47.3267 577.346 50.468C574.453 53.5267 573.006 57.6187 573.006 62.744C573.006 67.8693 574.453 72.0027 577.346 75.144C580.24 78.2027 583.96 79.732 588.506 79.732C595.202 79.732 599.914 76.508 602.642 70.06L620.25 70.06C618.514 77.5 614.836 83.5347 609.214 88.164C603.676 92.7933 596.773 95.108 588.506 95.108Z" fill="white"></path> <path d="M648.78 93.744H631.792V0.743998L648.78 0.743998V38.812C652.583 33.1907 658.493 30.38 666.512 30.38C673.952 30.38 679.78 32.86 683.996 37.82C688.295 42.6973 690.444 49.228 690.444 57.412V93.744H673.456V60.264C673.456 55.7173 672.505 52.204 670.604 49.724C668.703 47.1613 666.016 45.88 662.544 45.88C658.411 45.88 655.063 47.368 652.5 50.344C650.02 53.32 648.78 57.7013 648.78 63.488V93.744Z" fill="white"></path> <path d="M68.8118 207.108C60.6278 207.108 53.7251 203.925 48.1038 197.56C42.4824 191.195 39.6718 183.589 39.6718 174.744C39.6718 165.899 42.4824 158.293 48.1038 151.928C53.7251 145.563 60.6278 142.38 68.8118 142.38C72.7798 142.38 76.3344 143.207 79.4758 144.86C82.6171 146.513 85.0144 148.456 86.6678 150.688V112.744H103.656V205.744H86.6678V198.8C85.0144 201.032 82.6171 202.975 79.4758 204.628C76.3344 206.281 72.7798 207.108 68.8118 207.108ZM60.9998 186.896C63.8931 190.037 67.6958 191.608 72.4078 191.608C77.1198 191.608 80.8811 190.037 83.6918 186.896C86.5851 183.755 88.0318 179.704 88.0318 174.744C88.0318 169.784 86.5851 165.733 83.6918 162.592C80.8811 159.451 77.1198 157.88 72.4078 157.88C67.6958 157.88 63.8931 159.451 60.9998 162.592C58.1891 165.733 56.7838 169.784 56.7838 174.744C56.7838 179.704 58.1891 183.755 60.9998 186.896Z" fill="white"></path> <path d="M148.691 207.108C139.184 207.108 131.372 204.049 125.255 197.932C119.22 191.815 116.203 184.044 116.203 174.62C116.203 165.361 119.262 157.673 125.379 151.556C131.579 145.439 139.391 142.38 148.815 142.38C158.322 142.38 166.216 145.645 172.499 152.176C178.782 158.624 181.675 167.469 181.179 178.712H132.819C133.15 182.597 134.762 185.863 137.655 188.508C140.548 191.071 144.516 192.352 149.559 192.352C152.618 192.352 155.304 191.773 157.619 190.616C160.016 189.376 161.711 187.681 162.703 185.532H180.435C178.616 191.897 174.814 197.105 169.027 201.156C163.24 205.124 156.462 207.108 148.691 207.108ZM148.319 156.144C144.434 156.144 141.168 157.177 138.523 159.244C135.96 161.228 134.266 163.997 133.439 167.552H162.579C161.67 163.667 159.851 160.815 157.123 158.996C154.478 157.095 151.543 156.144 148.319 156.144Z" fill="white"></path> <path d="M217.486 207.108C209.55 207.108 202.978 205.124 197.77 201.156C192.562 197.188 189.792 192.145 189.462 186.028H207.194C207.524 188.673 208.682 190.699 210.666 192.104C212.65 193.427 215.088 194.088 217.982 194.088C223.355 194.088 226.042 192.435 226.042 189.128C226.042 187.475 225.422 186.235 224.182 185.408C223.024 184.499 221.04 183.672 218.23 182.928L206.574 179.952C201.283 178.547 197.315 176.191 194.67 172.884C192.107 169.495 190.826 165.444 190.826 160.732C190.826 155.359 193.058 150.977 197.522 147.588C202.068 144.116 208.144 142.38 215.75 142.38C222.694 142.38 228.48 144.157 233.11 147.712C237.739 151.184 240.302 155.937 240.798 161.972H223.686C222.942 157.756 220.214 155.648 215.502 155.648C213.27 155.648 211.492 156.061 210.17 156.888C208.847 157.715 208.186 158.872 208.186 160.36C208.186 163.088 210.542 164.989 215.254 166.064L226.166 169.04C232.2 170.528 236.582 172.884 239.31 176.108C242.038 179.249 243.402 183.3 243.402 188.26C243.402 193.964 240.963 198.552 236.086 202.024C231.291 205.413 225.091 207.108 217.486 207.108Z" fill="white"></path> <path d="M264.107 133.576C261.214 133.576 258.692 132.543 256.543 130.476C254.394 128.327 253.319 125.764 253.319 122.788C253.319 119.812 254.394 117.291 256.543 115.224C258.692 113.075 261.214 112 264.107 112C267.166 112 269.728 113.075 271.795 115.224C273.944 117.291 275.019 119.812 275.019 122.788C275.019 125.764 273.944 128.327 271.795 130.476C269.728 132.543 267.166 133.576 264.107 133.576ZM255.675 205.744V143.744H272.663V205.744H255.675Z" fill="white"></path> <path d="M317.868 232.9C309.27 232.9 302.244 230.709 296.788 226.328C291.332 221.947 288.273 216.367 287.612 209.588H304.228C306.377 215.705 311.048 218.764 318.24 218.764C322.208 218.764 325.514 217.483 328.16 214.92C330.888 212.357 332.252 208.761 332.252 204.132V196.816C330.516 199.213 328.036 201.197 324.812 202.768C321.588 204.256 318.074 205 314.272 205C306.17 205 299.268 201.983 293.564 195.948C287.86 189.831 285.008 182.432 285.008 173.752C285.008 164.989 287.86 157.591 293.564 151.556C299.268 145.439 306.17 142.38 314.272 142.38C318.157 142.38 321.67 143.165 324.812 144.736C328.036 146.224 330.516 148.208 332.252 150.688V143.744H349.24L349.24 201.9C349.24 212.399 346.222 220.169 340.188 225.212C334.236 230.337 326.796 232.9 317.868 232.9ZM306.708 185.16C309.766 188.136 313.486 189.624 317.868 189.624C322.249 189.624 325.969 188.136 329.028 185.16C332.086 182.184 333.616 178.381 333.616 173.752C333.616 169.123 332.086 165.32 329.028 162.344C325.969 159.368 322.249 157.88 317.868 157.88C313.486 157.88 309.766 159.368 306.708 162.344C303.649 165.32 302.12 169.123 302.12 173.752C302.12 178.381 303.649 182.184 306.708 185.16Z" fill="white"></path> <path d="M365.628 205.744L365.628 143.744H382.616V150.812C386.419 145.191 392.329 142.38 400.348 142.38C407.788 142.38 413.616 144.86 417.832 149.82C422.131 154.697 424.28 161.228 424.28 169.412L424.28 205.744H407.292L407.292 172.264C407.292 167.717 406.341 164.204 404.44 161.724C402.539 159.161 399.852 157.88 396.38 157.88C392.247 157.88 388.899 159.368 386.336 162.344C383.856 165.32 382.616 169.701 382.616 175.488L382.616 205.744H365.628Z" fill="white"></path> <path d="M471.362 164.124C468.727 164.124 466.51 163.161 464.712 161.236C462.938 159.311 462.052 156.98 462.052 154.244C462.052 151.508 462.938 149.177 464.712 147.252C466.51 145.327 468.727 144.364 471.362 144.364C472.755 144.364 474.047 144.681 475.238 145.314C476.454 145.922 477.391 146.707 478.05 147.67V144.744H481.318V163.744H478.05V160.818C477.391 161.781 476.454 162.579 475.238 163.212C474.047 163.82 472.755 164.124 471.362 164.124ZM471.856 161.122C473.73 161.122 475.276 160.463 476.492 159.146C477.708 157.829 478.316 156.195 478.316 154.244C478.316 152.293 477.708 150.659 476.492 149.342C475.276 148.025 473.73 147.366 471.856 147.366C469.956 147.366 468.398 148.025 467.182 149.342C465.966 150.659 465.358 152.293 465.358 154.244C465.358 156.195 465.966 157.829 467.182 159.146C468.398 160.463 469.956 161.122 471.856 161.122Z" fill="#898989"></path> <path d="M487.469 163.744V144.744H490.737V148.43C491.092 147.265 491.776 146.327 492.789 145.618C493.828 144.909 494.917 144.554 496.057 144.554C496.615 144.554 497.109 144.605 497.539 144.706V148.088C497.083 147.885 496.488 147.784 495.753 147.784C494.436 147.784 493.271 148.354 492.257 149.494C491.244 150.634 490.737 152.243 490.737 154.32V163.744H487.469Z" fill="#898989"></path> <path d="M509.153 164.124C506.291 164.124 503.922 163.174 502.047 161.274C500.173 159.349 499.235 157.005 499.235 154.244C499.235 151.483 500.173 149.152 502.047 147.252C503.922 145.327 506.291 144.364 509.153 144.364C511.509 144.364 513.549 145.023 515.271 146.34C516.994 147.632 518.147 149.329 518.729 151.432H515.233C514.777 150.191 514.017 149.203 512.953 148.468C511.889 147.733 510.623 147.366 509.153 147.366C507.203 147.366 505.607 148.025 504.365 149.342C503.149 150.659 502.541 152.293 502.541 154.244C502.541 156.195 503.149 157.829 504.365 159.146C505.607 160.463 507.203 161.122 509.153 161.122C510.623 161.122 511.889 160.755 512.953 160.02C514.017 159.285 514.777 158.297 515.233 157.056H518.729C518.172 159.159 517.032 160.869 515.309 162.186C513.587 163.478 511.535 164.124 509.153 164.124Z" fill="#898989"></path> <path d="M526.325 163.744H523.057V135.244H526.325V147.67C527.617 145.466 529.631 144.364 532.367 144.364C534.521 144.364 536.256 145.061 537.573 146.454C538.891 147.847 539.549 149.709 539.549 152.04V163.744H536.319V152.534C536.319 150.938 535.914 149.684 535.103 148.772C534.293 147.835 533.203 147.366 531.835 147.366C530.265 147.366 528.947 147.987 527.883 149.228C526.845 150.469 526.325 152.167 526.325 154.32V163.744Z" fill="#898989"></path> <path d="M548.74 139.006C548.309 139.437 547.765 139.652 547.106 139.652C546.447 139.652 545.89 139.437 545.434 139.006C544.978 138.55 544.75 137.993 544.75 137.334C544.75 136.701 544.978 136.156 545.434 135.7C545.89 135.244 546.447 135.016 547.106 135.016C547.765 135.016 548.309 135.244 548.74 135.7C549.171 136.156 549.386 136.701 549.386 137.334C549.386 137.993 549.171 138.55 548.74 139.006ZM545.434 163.744V144.744H548.702V163.744H545.434Z" fill="#898989"></path> <path d="M562.269 163.934C560.521 163.934 559.115 163.44 558.051 162.452C556.987 161.464 556.455 160.02 556.455 158.12V147.746L552.427 147.746V144.744L556.455 144.744V139.462H559.723V144.744H565.195V147.746H559.723V157.702C559.723 158.893 559.976 159.729 560.483 160.21C560.99 160.691 561.788 160.932 562.877 160.932C563.84 160.932 564.612 160.805 565.195 160.552V163.478C564.283 163.782 563.308 163.934 562.269 163.934Z" fill="#898989"></path> <path d="M577.204 164.124C574.443 164.124 572.15 163.187 570.326 161.312C568.527 159.437 567.628 157.081 567.628 154.244C567.628 151.381 568.502 149.025 570.25 147.176C572.023 145.301 574.367 144.364 577.28 144.364C580.219 144.364 582.524 145.403 584.196 147.48C585.868 149.557 586.603 152.103 586.4 155.118H570.934C570.985 156.841 571.618 158.285 572.834 159.45C574.05 160.59 575.519 161.16 577.242 161.16C579.826 161.16 581.663 160.096 582.752 157.968H586.096C585.615 159.741 584.589 161.211 583.018 162.376C581.447 163.541 579.509 164.124 577.204 164.124ZM580.928 148.62C579.889 147.708 578.635 147.252 577.166 147.252C575.697 147.252 574.379 147.695 573.214 148.582C572.074 149.469 571.365 150.786 571.086 152.534H582.942C582.638 150.811 581.967 149.507 580.928 148.62Z" fill="#898989"></path> <path d="M599.552 164.124C596.689 164.124 594.32 163.174 592.446 161.274C590.571 159.349 589.634 157.005 589.634 154.244C589.634 151.483 590.571 149.152 592.446 147.252C594.32 145.327 596.689 144.364 599.552 144.364C601.908 144.364 603.947 145.023 605.67 146.34C607.392 147.632 608.545 149.329 609.128 151.432H605.632C605.176 150.191 604.416 149.203 603.352 148.468C602.288 147.733 601.021 147.366 599.552 147.366C597.601 147.366 596.005 148.025 594.764 149.342C593.548 150.659 592.94 152.293 592.94 154.244C592.94 156.195 593.548 157.829 594.764 159.146C596.005 160.463 597.601 161.122 599.552 161.122C601.021 161.122 602.288 160.755 603.352 160.02C604.416 159.285 605.176 158.297 605.632 157.056H609.128C608.57 159.159 607.43 160.869 605.708 162.186C603.985 163.478 601.933 164.124 599.552 164.124Z" fill="#898989"></path> <path d="M620.642 163.934C618.894 163.934 617.488 163.44 616.424 162.452C615.36 161.464 614.828 160.02 614.828 158.12V147.746H610.8V144.744H614.828V139.462H618.096V144.744H623.568V147.746H618.096V157.702C618.096 158.893 618.349 159.729 618.856 160.21C619.363 160.691 620.161 160.932 621.25 160.932C622.213 160.932 622.985 160.805 623.568 160.552V163.478C622.656 163.782 621.681 163.934 620.642 163.934Z" fill="#898989"></path> <path d="M634.469 164.124C632.391 164.124 630.707 163.427 629.415 162.034C628.123 160.615 627.477 158.741 627.477 156.41V144.744H630.745V155.916C630.745 157.512 631.125 158.779 631.885 159.716C632.67 160.653 633.721 161.122 635.039 161.122C636.559 161.122 637.813 160.501 638.801 159.26C639.814 157.993 640.321 156.296 640.321 154.168V144.744H643.589V163.744H640.321V160.818C639.079 163.022 637.129 164.124 634.469 164.124Z" fill="#898989"></path> <path d="M649.749 163.744V144.744H653.017V148.43C653.371 147.265 654.055 146.327 655.069 145.618C656.107 144.909 657.197 144.554 658.337 144.554C658.894 144.554 659.388 144.605 659.819 144.706V148.088C659.363 147.885 658.767 147.784 658.033 147.784C656.715 147.784 655.55 148.354 654.537 149.494C653.523 150.634 653.017 152.243 653.017 154.32V163.744H649.749Z" fill="#898989"></path> <path d="M670.862 164.124C668.227 164.124 666.01 163.161 664.212 161.236C662.438 159.311 661.552 156.98 661.552 154.244C661.552 151.508 662.438 149.177 664.212 147.252C666.01 145.327 668.227 144.364 670.862 144.364C672.255 144.364 673.547 144.681 674.738 145.314C675.954 145.922 676.891 146.707 677.55 147.67V144.744H680.818V163.744H677.55V160.818C676.891 161.781 675.954 162.579 674.738 163.212C673.547 163.82 672.255 164.124 670.862 164.124ZM671.356 161.122C673.23 161.122 674.776 160.463 675.992 159.146C677.208 157.829 677.816 156.195 677.816 154.244C677.816 152.293 677.208 150.659 675.992 149.342C674.776 148.025 673.23 147.366 671.356 147.366C669.456 147.366 667.898 148.025 666.682 149.342C665.466 150.659 664.858 152.293 664.858 154.244C664.858 156.195 665.466 157.829 666.682 159.146C667.898 160.463 669.456 161.122 671.356 161.122Z" fill="#898989"></path> <path d="M686.969 163.744V135.244H690.237V163.744H686.969Z" fill="#898989"></path> <path d="M473.49 206.124C472.096 206.124 470.792 205.82 469.576 205.212C468.385 204.579 467.46 203.781 466.802 202.818V205.744H463.534V177.244H466.802V189.67C467.46 188.707 468.385 187.922 469.576 187.314C470.792 186.681 472.096 186.364 473.49 186.364C476.124 186.364 478.328 187.327 480.102 189.252C481.9 191.177 482.8 193.508 482.8 196.244C482.8 198.98 481.9 201.311 480.102 203.236C478.328 205.161 476.124 206.124 473.49 206.124ZM468.36 201.146C469.576 202.463 471.121 203.122 472.996 203.122C474.87 203.122 476.416 202.463 477.632 201.146C478.848 199.829 479.456 198.195 479.456 196.244C479.456 194.293 478.848 192.659 477.632 191.342C476.416 190.025 474.87 189.366 472.996 189.366C471.121 189.366 469.576 190.025 468.36 191.342C467.144 192.659 466.536 194.293 466.536 196.244C466.536 198.195 467.144 199.829 468.36 201.146Z" fill="#898989"></path> <path d="M494.195 206.124C492.118 206.124 490.433 205.427 489.141 204.034C487.849 202.615 487.203 200.741 487.203 198.41V186.744H490.471V197.916C490.471 199.512 490.851 200.779 491.611 201.716C492.397 202.653 493.448 203.122 494.765 203.122C496.285 203.122 497.539 202.501 498.527 201.26C499.541 199.993 500.047 198.296 500.047 196.168V186.744H503.315V205.744H500.047V202.818C498.806 205.022 496.855 206.124 494.195 206.124Z" fill="#898989"></path> <path d="M509.475 205.744V186.744H512.743V190.43C513.098 189.265 513.782 188.327 514.795 187.618C515.834 186.909 516.923 186.554 518.063 186.554C518.62 186.554 519.114 186.605 519.545 186.706V190.088C519.089 189.885 518.494 189.784 517.759 189.784C516.442 189.784 515.276 190.354 514.263 191.494C513.25 192.634 512.743 194.243 512.743 196.32V205.744H509.475Z" fill="#898989"></path> <path d="M530.817 206.124C528.056 206.124 525.763 205.187 523.939 203.312C522.141 201.437 521.241 199.081 521.241 196.244C521.241 193.381 522.115 191.025 523.863 189.176C525.637 187.301 527.98 186.364 530.893 186.364C533.832 186.364 536.137 187.403 537.809 189.48C539.481 191.557 540.216 194.103 540.013 197.118H524.547C524.598 198.841 525.231 200.285 526.447 201.45C527.663 202.59 529.133 203.16 530.855 203.16C533.439 203.16 535.276 202.096 536.365 199.968H539.709C539.228 201.741 538.202 203.211 536.631 204.376C535.061 205.541 533.123 206.124 530.817 206.124ZM534.541 190.62C533.503 189.708 532.249 189.252 530.779 189.252C529.31 189.252 527.993 189.695 526.827 190.582C525.687 191.469 524.978 192.786 524.699 194.534H536.555C536.251 192.811 535.58 191.507 534.541 190.62Z" fill="#898989"></path> <path d="M552.557 206.124C549.922 206.124 547.706 205.161 545.907 203.236C544.134 201.311 543.247 198.98 543.247 196.244C543.247 193.508 544.134 191.177 545.907 189.252C547.706 187.327 549.922 186.364 552.557 186.364C553.95 186.364 555.242 186.681 556.433 187.314C557.649 187.922 558.586 188.707 559.245 189.67V186.744H562.513V205.744H559.245V202.818C558.586 203.781 557.649 204.579 556.433 205.212C555.242 205.82 553.95 206.124 552.557 206.124ZM553.051 203.122C554.926 203.122 556.471 202.463 557.687 201.146C558.903 199.829 559.511 198.195 559.511 196.244C559.511 194.293 558.903 192.659 557.687 191.342C556.471 190.025 554.926 189.366 553.051 189.366C551.151 189.366 549.593 190.025 548.377 191.342C547.161 192.659 546.553 194.293 546.553 196.244C546.553 198.195 547.161 199.829 548.377 201.146C549.593 202.463 551.151 203.122 553.051 203.122Z" fill="#898989"></path> <path d="M575.391 206.124C573.313 206.124 571.629 205.427 570.337 204.034C569.045 202.615 568.399 200.741 568.399 198.41V186.744H571.667V197.916C571.667 199.512 572.047 200.779 572.807 201.716C573.592 202.653 574.643 203.122 575.961 203.122C577.481 203.122 578.735 202.501 579.723 201.26C580.736 199.993 581.243 198.296 581.243 196.168V186.744H584.511V205.744H581.243V202.818C580.001 205.022 578.051 206.124 575.391 206.124Z" fill="#898989"></path> </svg> 