<?xml version="1.0" encoding="UTF-8"?> <svg xmlns="http://www.w3.org/2000/svg" width="233" height="691" viewBox="0 0 233 691" fill="none"> <path d="M209.736 673.664C209.736 677.136 208.537 680.071 206.14 682.468C203.743 684.865 200.808 686.064 197.336 686.064C193.864 686.064 190.929 684.865 188.532 682.468C186.135 680.071 184.936 677.136 184.936 673.664C184.936 670.275 186.176 667.381 188.656 664.984C191.053 662.504 193.947 661.264 197.336 661.264C200.725 661.264 203.66 662.504 206.14 664.984C208.537 667.381 209.736 670.275 209.736 673.664Z" fill="#0047BB"></path> <path d="M95.232 617.832C95.232 627.835 92.38 635.895 86.676 642.012C80.8893 648.129 74.152 651.353 66.464 651.684L66.464 633.704C70.3493 633.043 73.3666 631.265 75.516 628.372C77.5826 625.479 78.616 621.965 78.616 617.832C78.616 614.112 77.8306 611.095 76.26 608.78C74.6066 606.465 72.416 605.308 69.688 605.308C64.8106 605.308 61.256 609.235 59.024 617.088L56.296 626.388C54.2293 633.58 51.0053 639.201 46.624 643.252C42.2426 647.303 36.7866 649.369 30.256 649.452C22.2373 649.452 15.9133 646.765 11.284 641.392C6.57195 636.019 4.21595 628.868 4.21595 619.94C4.21595 610.929 6.94395 603.613 12.4 597.992C17.7733 592.371 23.9733 589.395 31 589.064L31 606.92C27.528 607.829 24.9653 609.483 23.312 611.88C21.6586 614.277 20.832 616.964 20.832 619.94C20.832 623.247 21.576 625.975 23.064 628.124C24.4693 630.191 26.4533 631.265 29.016 631.348C31.6613 631.431 33.8106 630.563 35.464 628.744C37.1173 626.925 38.4813 624.115 39.556 620.312L42.4079 610.02C46.624 594.809 55.5106 587.204 69.068 587.204C76.6733 587.204 82.956 590.056 87.916 595.76C92.7933 601.381 95.232 608.739 95.232 617.832Z" fill="white"></path> <path d="M94.488 544.81C94.488 551.754 92.5866 557.458 88.784 561.922C84.8986 566.303 79.3186 568.494 72.0439 568.494L46.624 568.494L46.624 581.018L31.744 581.018L31.744 568.494L14.5079 568.494L14.5079 551.506L31.744 551.506L31.744 534.022L46.6239 534.022L46.624 551.506L68.6959 551.506C72.4986 551.506 75.2266 550.679 76.88 549.026C78.4506 547.372 79.2359 544.686 79.2359 540.966C79.2359 538.32 78.864 536.006 78.12 534.022L93.1239 534.022C94.0333 536.998 94.488 540.594 94.488 544.81Z" fill="white"></path> <path d="M95.1079 497.575C95.1079 505.759 91.9253 512.662 85.56 518.283C79.1946 523.905 71.5893 526.715 62.744 526.715C53.8986 526.715 46.2933 523.905 39.9279 518.283C33.5626 512.662 30.3799 505.759 30.3799 497.575C30.3799 493.607 31.2066 490.053 32.8599 486.911C34.5133 483.77 36.456 481.373 38.688 479.719L31.744 479.719L31.744 462.731L93.7439 462.731L93.744 479.719L86.7999 479.719C89.032 481.373 90.9746 483.77 92.628 486.911C94.2813 490.053 95.1079 493.607 95.1079 497.575ZM74.896 505.387C78.0373 502.494 79.6079 498.691 79.6079 493.979C79.6079 489.267 78.0373 485.506 74.896 482.695C71.7546 479.802 67.7039 478.355 62.7439 478.355C57.784 478.355 53.7333 479.802 50.5919 482.695C47.4506 485.506 45.88 489.267 45.88 493.979C45.88 498.691 47.4506 502.494 50.592 505.387C53.7333 508.198 57.784 509.603 62.744 509.603C67.704 509.603 71.7546 508.198 74.896 505.387Z" fill="white"></path> <path d="M93.7439 446.216L31.744 446.216L31.7439 429.228L38.8119 429.228C33.1906 425.425 30.3799 419.515 30.3799 411.496C30.3799 404.056 32.8599 398.228 37.8199 394.012C42.6973 389.713 49.2279 387.564 57.4119 387.564L93.7439 387.564L93.7439 404.552L60.2639 404.552C55.7173 404.552 52.2039 405.503 49.7239 407.404C47.1613 409.305 45.8799 411.992 45.8799 415.464C45.8799 419.597 47.3679 422.945 50.3439 425.508C53.3199 427.988 57.7013 429.228 63.4879 429.228L93.7439 429.228L93.7439 446.216Z" fill="white"></path> <path d="M93.7439 329.702L65.2239 354.998L93.7439 354.998L93.7439 371.986L0.74394 371.986L0.743939 354.998L54.5599 354.998L31.7439 334.91L31.7439 314.45L59.6439 339.002L93.7439 308.746L93.7439 329.702Z" fill="white"></path> <path d="M95.1079 278.438C95.1079 287.945 92.0493 295.757 85.9319 301.874C79.8146 307.909 72.0439 310.926 62.6199 310.926C53.3613 310.926 45.6733 307.868 39.5559 301.75C33.4386 295.55 30.3799 287.738 30.3799 278.314C30.3799 268.808 33.6453 260.913 40.1759 254.63C46.6239 248.348 55.4693 245.454 66.7119 245.95L66.7119 294.31C70.5973 293.98 73.8626 292.368 76.5079 289.474C79.0706 286.581 80.3519 282.613 80.3519 277.57C80.3519 274.512 79.7733 271.825 78.6159 269.51C77.3759 267.113 75.6813 265.418 73.5319 264.426L73.5319 246.694C79.8973 248.513 85.1053 252.316 89.1559 258.102C93.1239 263.889 95.1079 270.668 95.1079 278.438ZM44.1439 278.81C44.1439 282.696 45.1773 285.961 47.2439 288.606C49.2279 291.169 51.9973 292.864 55.5519 293.69L55.5519 264.55C51.6666 265.46 48.8146 267.278 46.9959 270.006C45.0946 272.652 44.1439 275.586 44.1439 278.81Z" fill="white"></path> <path d="M93.7439 216.169L31.7439 243.573L31.7439 224.849L71.4239 208.481L31.7439 192.113L31.7439 173.141L93.7439 200.669L93.7439 216.169Z" fill="white"></path> <path d="M21.5759 156.362C21.5759 159.255 20.5426 161.777 18.4759 163.926C16.3266 166.075 13.7639 167.15 10.7879 167.15C7.81193 167.15 5.2906 166.075 3.22394 163.926C1.0746 161.777 -6.73011e-05 159.255 -6.74276e-05 156.362C-6.75613e-05 153.303 1.0746 150.741 3.22394 148.674C5.2906 146.525 7.81193 145.45 10.7879 145.45C13.7639 145.45 16.3266 146.525 18.4759 148.674C20.5426 150.741 21.5759 153.303 21.5759 156.362ZM93.7439 164.794L31.7439 164.794L31.7439 147.806L93.7439 147.806L93.7439 164.794Z" fill="white"></path> <path d="M95.1079 102.849C95.1079 112.191 92.0079 119.961 85.8079 126.161C79.5253 132.361 71.8373 135.461 62.7439 135.461C53.6506 135.461 46.0039 132.361 39.8039 126.161C33.5213 119.961 30.3799 112.191 30.3799 102.849C30.3799 94.5827 32.6946 87.6801 37.3239 82.1414C41.9533 76.52 47.9879 72.8414 55.4279 71.1053L55.4279 88.7134C48.9799 91.4414 45.7559 96.1534 45.7559 102.849C45.7559 107.396 47.3266 111.116 50.4679 114.009C53.5266 116.903 57.6186 118.349 62.7439 118.349C67.8693 118.349 72.0026 116.903 75.1439 114.009C78.2026 111.116 79.7319 107.396 79.7319 102.849C79.7319 96.1534 76.5079 91.4414 70.0599 88.7134L70.0599 71.1053C77.4999 72.8414 83.5346 76.52 88.1639 82.1414C92.7933 87.68 95.1079 94.5827 95.1079 102.849Z" fill="white"></path> <path d="M93.7439 42.5757L93.7439 59.5637L0.743926 59.5637L0.743925 42.5757L38.8119 42.5757C33.1906 38.773 30.3799 32.8624 30.3799 24.8437C30.3799 17.4037 32.8599 11.5757 37.8199 7.35968C42.6973 3.06103 49.2279 0.91168 57.4119 0.91168L93.7439 0.911678L93.7439 17.8997L60.2639 17.8997C55.7173 17.8997 52.2039 18.8504 49.7239 20.7517C47.1613 22.653 45.8799 25.3397 45.8799 28.8117C45.8799 32.9451 47.3679 36.293 50.3439 38.8556C53.3199 41.3356 57.7013 42.5757 63.4879 42.5757L93.7439 42.5757Z" fill="white"></path> <path d="M207.108 622.544C207.108 630.728 203.925 637.631 197.56 643.252C191.195 648.873 183.589 651.684 174.744 651.684C165.899 651.684 158.293 648.873 151.928 643.252C145.563 637.631 142.38 630.728 142.38 622.544C142.38 618.576 143.207 615.021 144.86 611.88C146.513 608.739 148.456 606.341 150.688 604.688L112.744 604.688L112.744 587.7L205.744 587.7L205.744 604.688L198.8 604.688C201.032 606.341 202.975 608.739 204.628 611.88C206.281 615.021 207.108 618.576 207.108 622.544ZM186.896 630.356C190.037 627.463 191.608 623.66 191.608 618.948C191.608 614.236 190.037 610.475 186.896 607.664C183.755 604.771 179.704 603.324 174.744 603.324C169.784 603.324 165.733 604.771 162.592 607.664C159.451 610.475 157.88 614.236 157.88 618.948C157.88 623.66 159.451 627.463 162.592 630.356C165.733 633.167 169.784 634.572 174.744 634.572C179.704 634.572 183.755 633.167 186.896 630.356Z" fill="white"></path> <path d="M207.108 542.665C207.108 552.171 204.049 559.983 197.932 566.101C191.815 572.135 184.044 575.153 174.62 575.153C165.361 575.153 157.673 572.094 151.556 565.977C145.439 559.777 142.38 551.965 142.38 542.541C142.38 533.034 145.645 525.139 152.176 518.857C158.624 512.574 167.469 509.681 178.712 510.177L178.712 558.537C182.597 558.206 185.863 556.594 188.508 553.701C191.071 550.807 192.352 546.839 192.352 541.797C192.352 538.738 191.773 536.051 190.616 533.737C189.376 531.339 187.681 529.645 185.532 528.653L185.532 510.921C191.897 512.739 197.105 516.542 201.156 522.329C205.124 528.115 207.108 534.894 207.108 542.665ZM156.144 543.037C156.144 546.922 157.177 550.187 159.244 552.833C161.228 555.395 163.997 557.09 167.552 557.917L167.552 528.777C163.667 529.686 160.815 531.505 158.996 534.233C157.095 536.878 156.144 539.813 156.144 543.037Z" fill="white"></path> <path d="M207.108 473.87C207.108 481.806 205.124 488.378 201.156 493.586C197.188 498.794 192.145 501.563 186.028 501.894L186.028 484.162C188.673 483.831 190.699 482.674 192.104 480.69C193.427 478.706 194.088 476.267 194.088 473.374C194.088 468.001 192.435 465.314 189.128 465.314C187.475 465.314 186.235 465.934 185.408 467.174C184.499 468.331 183.672 470.315 182.928 473.126L179.952 484.782C178.547 490.073 176.191 494.041 172.884 496.686C169.495 499.249 165.444 500.53 160.732 500.53C155.359 500.53 150.977 498.298 147.588 493.834C144.116 489.287 142.38 483.211 142.38 475.606C142.38 468.662 144.157 462.875 147.712 458.246C151.184 453.617 155.937 451.054 161.972 450.558L161.972 467.67C157.756 468.414 155.648 471.142 155.648 475.854C155.648 478.086 156.061 479.863 156.888 481.186C157.715 482.509 158.872 483.17 160.36 483.17C163.088 483.17 164.989 480.814 166.064 476.102L169.04 465.19C170.528 459.155 172.884 454.774 176.108 452.046C179.249 449.318 183.3 447.954 188.26 447.954C193.964 447.954 198.552 450.393 202.024 455.27C205.413 460.065 207.108 466.265 207.108 473.87Z" fill="white"></path> <path d="M133.576 427.249C133.576 430.142 132.543 432.664 130.476 434.813C128.327 436.962 125.764 438.037 122.788 438.037C119.812 438.037 117.291 436.962 115.224 434.813C113.075 432.664 112 430.142 112 427.249C112 424.19 113.075 421.628 115.224 419.561C117.291 417.412 119.812 416.337 122.788 416.337C125.764 416.337 128.327 417.412 130.476 419.561C132.543 421.628 133.576 424.19 133.576 427.249ZM205.744 435.681L143.744 435.681L143.744 418.693L205.744 418.693L205.744 435.681Z" fill="white"></path> <path d="M232.9 373.488C232.9 382.085 230.709 389.112 226.328 394.568C221.947 400.024 216.367 403.083 209.588 403.744L209.588 387.128C215.705 384.979 218.764 380.308 218.764 373.116C218.764 369.148 217.483 365.841 214.92 363.196C212.357 360.468 208.761 359.104 204.132 359.104L196.816 359.104C199.213 360.84 201.197 363.32 202.768 366.544C204.256 369.768 205 373.281 205 377.084C205 385.185 201.983 392.088 195.948 397.792C189.831 403.496 182.432 406.348 173.752 406.348C164.989 406.348 157.591 403.496 151.556 397.792C145.439 392.088 142.38 385.185 142.38 377.084C142.38 373.199 143.165 369.685 144.736 366.544C146.224 363.32 148.208 360.84 150.688 359.104L143.744 359.104L143.744 342.116L201.9 342.116C212.399 342.116 220.169 345.133 225.212 351.168C230.337 357.12 232.9 364.56 232.9 373.488ZM185.16 384.648C188.136 381.589 189.624 377.869 189.624 373.488C189.624 369.107 188.136 365.387 185.16 362.328C182.184 359.269 178.381 357.74 173.752 357.74C169.123 357.74 165.32 359.269 162.344 362.328C159.368 365.387 157.88 369.107 157.88 373.488C157.88 377.869 159.368 381.589 162.344 384.648C165.32 387.707 169.123 389.236 173.752 389.236C178.381 389.236 182.184 387.707 185.16 384.648Z" fill="white"></path> <path d="M205.744 325.728L143.744 325.728L143.744 308.74L150.812 308.74C145.191 304.937 142.38 299.026 142.38 291.008C142.38 283.568 144.86 277.74 149.82 273.524C154.697 269.225 161.228 267.076 169.412 267.076L205.744 267.076L205.744 284.064L172.264 284.064C167.717 284.064 164.204 285.014 161.724 286.916C159.161 288.817 157.88 291.504 157.88 294.976C157.88 299.109 159.368 302.457 162.344 305.02C165.32 307.5 169.701 308.74 175.488 308.74L205.744 308.74L205.744 325.728Z" fill="white"></path> <g opacity="0.7"> <path d="M164.124 219.994C164.124 222.629 163.161 224.845 161.236 226.644C159.311 228.417 156.98 229.304 154.244 229.304C151.508 229.304 149.177 228.417 147.252 226.644C145.327 224.845 144.364 222.629 144.364 219.994C144.364 218.601 144.681 217.309 145.314 216.118C145.922 214.902 146.707 213.965 147.67 213.306L144.744 213.306L144.744 210.038L163.744 210.038L163.744 213.306L160.818 213.306C161.781 213.965 162.579 214.902 163.212 216.118C163.82 217.309 164.124 218.601 164.124 219.994ZM161.122 219.5C161.122 217.625 160.463 216.08 159.146 214.864C157.829 213.648 156.195 213.04 154.244 213.04C152.293 213.04 150.659 213.648 149.342 214.864C148.025 216.08 147.366 217.625 147.366 219.5C147.366 221.4 148.025 222.958 149.342 224.174C150.659 225.39 152.293 225.998 154.244 225.998C156.195 225.998 157.829 225.39 159.146 224.174C160.463 222.958 161.122 221.4 161.122 219.5Z" fill="white"></path> <path d="M163.744 203.886L144.744 203.886L144.744 200.618L148.43 200.618C147.265 200.264 146.327 199.58 145.618 198.566C144.909 197.528 144.554 196.438 144.554 195.298C144.554 194.741 144.605 194.247 144.706 193.816L148.088 193.816C147.885 194.272 147.784 194.868 147.784 195.602C147.784 196.92 148.354 198.085 149.494 199.098C150.634 200.112 152.243 200.618 154.32 200.618L163.744 200.618L163.744 203.886Z" fill="white"></path> <path d="M164.124 182.202C164.124 185.065 163.174 187.434 161.274 189.308C159.349 191.183 157.005 192.12 154.244 192.12C151.483 192.12 149.152 191.183 147.252 189.308C145.327 187.434 144.364 185.065 144.364 182.202C144.364 179.846 145.023 177.807 146.34 176.084C147.632 174.362 149.329 173.209 151.432 172.626L151.432 176.122C150.191 176.578 149.203 177.338 148.468 178.402C147.733 179.466 147.366 180.733 147.366 182.202C147.366 184.153 148.025 185.749 149.342 186.99C150.659 188.206 152.293 188.814 154.244 188.814C156.195 188.814 157.829 188.206 159.146 186.99C160.463 185.749 161.122 184.153 161.122 182.202C161.122 180.733 160.755 179.466 160.02 178.402C159.285 177.338 158.297 176.578 157.056 176.122L157.056 172.626C159.159 173.184 160.869 174.324 162.186 176.046C163.478 177.769 164.124 179.821 164.124 182.202Z" fill="white"></path> <path d="M163.744 165.031L163.744 168.299L135.244 168.299L135.244 165.031L147.67 165.031C145.466 163.739 144.364 161.725 144.364 158.989C144.364 156.835 145.061 155.1 146.454 153.783C147.847 152.465 149.709 151.807 152.04 151.807L163.744 151.807L163.744 155.037L152.534 155.037C150.938 155.037 149.684 155.442 148.772 156.253C147.835 157.063 147.366 158.153 147.366 159.521C147.366 161.091 147.987 162.409 149.228 163.473C150.469 164.511 152.167 165.031 154.32 165.031L163.744 165.031Z" fill="white"></path> <path d="M139.006 142.616C139.437 143.046 139.652 143.591 139.652 144.25C139.652 144.908 139.437 145.466 139.006 145.922C138.55 146.378 137.993 146.606 137.334 146.606C136.701 146.606 136.156 146.378 135.7 145.922C135.244 145.466 135.016 144.908 135.016 144.25C135.016 143.591 135.244 143.046 135.7 142.616C136.156 142.185 136.701 141.97 137.334 141.97C137.993 141.97 138.55 142.185 139.006 142.616ZM163.744 145.922L144.744 145.922L144.744 142.654L163.744 142.654L163.744 145.922Z" fill="white"></path> <path d="M163.934 129.087C163.934 130.835 163.44 132.241 162.452 133.305C161.464 134.369 160.02 134.901 158.12 134.901L147.746 134.901L147.746 138.929L144.744 138.929L144.744 134.901L139.462 134.901L139.462 131.633L144.744 131.633L144.744 126.161L147.746 126.161L147.746 131.633L157.702 131.633C158.893 131.633 159.729 131.379 160.21 130.873C160.691 130.366 160.932 129.568 160.932 128.479C160.932 127.516 160.805 126.743 160.552 126.161L163.478 126.161C163.782 127.073 163.934 128.048 163.934 129.087Z" fill="white"></path> <path d="M164.124 114.152C164.124 116.913 163.187 119.206 161.312 121.03C159.437 122.829 157.081 123.728 154.244 123.728C151.381 123.728 149.025 122.854 147.176 121.106C145.301 119.333 144.364 116.989 144.364 114.076C144.364 111.137 145.403 108.832 147.48 107.16C149.557 105.488 152.103 104.753 155.118 104.956L155.118 120.422C156.841 120.371 158.285 119.738 159.45 118.522C160.59 117.306 161.16 115.837 161.16 114.114C161.16 111.53 160.096 109.693 157.968 108.604L157.968 105.26C159.741 105.741 161.211 106.767 162.376 108.338C163.541 109.909 164.124 111.847 164.124 114.152ZM148.62 110.428C147.708 111.467 147.252 112.721 147.252 114.19C147.252 115.659 147.695 116.977 148.582 118.142C149.469 119.282 150.786 119.991 152.534 120.27L152.534 108.414C150.811 108.718 149.507 109.389 148.62 110.428Z" fill="white"></path> <path d="M164.124 91.804C164.124 94.6666 163.174 97.0353 161.274 98.91C159.349 100.785 157.005 101.722 154.244 101.722C151.483 101.722 149.152 100.785 147.252 98.91C145.327 97.0353 144.364 94.6666 144.364 91.804C144.364 89.448 145.023 87.4086 146.34 85.686C147.632 83.9633 149.329 82.8107 151.432 82.228L151.432 85.724C150.191 86.18 149.203 86.94 148.468 88.004C147.733 89.068 147.366 90.3346 147.366 91.804C147.366 93.7546 148.025 95.3506 149.342 96.592C150.659 97.808 152.293 98.416 154.244 98.416C156.195 98.416 157.829 97.808 159.146 96.592C160.463 95.3506 161.122 93.7546 161.122 91.804C161.122 90.3346 160.755 89.068 160.02 88.004C159.285 86.94 158.297 86.18 157.056 85.724L157.056 82.228C159.159 82.7853 160.869 83.9253 162.186 85.648C163.478 87.3707 164.124 89.4226 164.124 91.804Z" fill="white"></path> <path d="M163.934 70.7137C163.934 72.4617 163.44 73.8677 162.452 74.9317C161.464 75.9957 160.02 76.5277 158.12 76.5277L147.746 76.5277L147.746 80.5557L144.744 80.5557L144.744 76.5277L139.462 76.5277L139.462 73.2597L144.744 73.2597L144.744 67.7877L147.746 67.7877L147.746 73.2597L157.702 73.2597C158.893 73.2597 159.729 73.0063 160.21 72.4997C160.691 71.993 160.932 71.195 160.932 70.1057C160.932 69.143 160.805 68.3703 160.552 67.7877L163.478 67.7877C163.782 68.6997 163.934 69.675 163.934 70.7137Z" fill="white"></path> <path d="M164.124 56.887C164.124 58.9644 163.427 60.649 162.034 61.941C160.615 63.233 158.741 63.879 156.41 63.879L144.744 63.879L144.744 60.611L155.916 60.611C157.512 60.611 158.779 60.231 159.716 59.471C160.653 58.6857 161.122 57.6344 161.122 56.317C161.122 54.797 160.501 53.543 159.26 52.555C157.993 51.5417 156.296 51.035 154.168 51.035L144.744 51.035L144.744 47.767L163.744 47.767L163.744 51.035L160.818 51.035C163.022 52.2764 164.124 54.227 164.124 56.887Z" fill="white"></path> <path d="M163.744 41.6072L144.744 41.6072L144.744 38.3392L148.43 38.3392C147.265 37.9845 146.327 37.3005 145.618 36.2872C144.909 35.2485 144.554 34.1592 144.554 33.0192C144.554 32.4618 144.605 31.9678 144.706 31.5372L148.088 31.5372C147.885 31.9932 147.784 32.5885 147.784 33.3232C147.784 34.6405 148.354 35.8058 149.494 36.8192C150.634 37.8325 152.243 38.3392 154.32 38.3392L163.744 38.3392L163.744 41.6072Z" fill="white"></path> <path d="M164.124 20.494C164.124 23.1287 163.161 25.3454 161.236 27.144C159.311 28.9173 156.98 29.804 154.244 29.804C151.508 29.804 149.177 28.9173 147.252 27.144C145.327 25.3454 144.364 23.1287 144.364 20.494C144.364 19.1007 144.681 17.8087 145.314 16.618C145.922 15.402 146.707 14.4647 147.67 13.806L144.744 13.806L144.744 10.538L163.744 10.538L163.744 13.806L160.818 13.806C161.781 14.4647 162.579 15.402 163.212 16.618C163.82 17.8087 164.124 19.1007 164.124 20.494ZM161.122 20C161.122 18.1253 160.463 16.58 159.146 15.364C157.829 14.148 156.195 13.54 154.244 13.54C152.293 13.54 150.659 14.148 149.342 15.364C148.025 16.58 147.366 18.1254 147.366 20C147.366 21.9 148.025 23.458 149.342 24.674C150.659 25.89 152.293 26.498 154.244 26.498C156.195 26.498 157.829 25.89 159.146 24.674C160.463 23.458 161.122 21.9 161.122 20Z" fill="white"></path> <path d="M163.744 4.38646L135.244 4.38646L135.244 1.11847L163.744 1.11847L163.744 4.38646Z" fill="white"></path> <path d="M206.124 217.866C206.124 219.259 205.82 220.564 205.212 221.78C204.579 222.971 203.781 223.895 202.818 224.554L205.744 224.554L205.744 227.822L177.244 227.822L177.244 224.554L189.67 224.554C188.707 223.895 187.922 222.971 187.314 221.78C186.681 220.564 186.364 219.259 186.364 217.866C186.364 215.231 187.327 213.027 189.252 211.254C191.177 209.455 193.508 208.556 196.244 208.556C198.98 208.556 201.311 209.455 203.236 211.254C205.161 213.027 206.124 215.231 206.124 217.866ZM201.146 222.996C202.463 221.78 203.122 220.235 203.122 218.36C203.122 216.485 202.463 214.94 201.146 213.724C199.829 212.508 198.195 211.9 196.244 211.9C194.293 211.9 192.659 212.508 191.342 213.724C190.025 214.94 189.366 216.485 189.366 218.36C189.366 220.235 190.025 221.78 191.342 222.996C192.659 224.212 194.293 224.82 196.244 224.82C198.195 224.82 199.829 224.212 201.146 222.996Z" fill="white"></path> <path d="M206.124 197.16C206.124 199.238 205.427 200.922 204.034 202.214C202.615 203.506 200.741 204.152 198.41 204.152L186.744 204.152L186.744 200.884L197.916 200.884C199.512 200.884 200.779 200.504 201.716 199.744C202.653 198.959 203.122 197.908 203.122 196.59C203.122 195.07 202.501 193.816 201.26 192.828C199.993 191.815 198.296 191.308 196.168 191.308L186.744 191.308L186.744 188.04L205.744 188.04L205.744 191.308L202.818 191.308C205.022 192.55 206.124 194.5 206.124 197.16Z" fill="white"></path> <path d="M205.744 181.881L186.744 181.881L186.744 178.613L190.43 178.613C189.265 178.258 188.327 177.574 187.618 176.561C186.909 175.522 186.554 174.433 186.554 173.293C186.554 172.735 186.605 172.241 186.706 171.811L190.088 171.811C189.885 172.267 189.784 172.862 189.784 173.597C189.784 174.914 190.354 176.079 191.494 177.093C192.634 178.106 194.243 178.613 196.32 178.613L205.744 178.613L205.744 181.881Z" fill="white"></path> <path d="M206.124 160.539C206.124 163.3 205.187 165.593 203.312 167.417C201.437 169.215 199.081 170.115 196.244 170.115C193.381 170.115 191.025 169.241 189.176 167.493C187.301 165.719 186.364 163.376 186.364 160.463C186.364 157.524 187.403 155.219 189.48 153.547C191.557 151.875 194.103 151.14 197.118 151.343L197.118 166.809C198.841 166.758 200.285 166.125 201.45 164.909C202.59 163.693 203.16 162.223 203.16 160.501C203.16 157.917 202.096 156.08 199.968 154.991L199.968 151.647C201.741 152.128 203.211 153.154 204.376 154.725C205.541 156.295 206.124 158.233 206.124 160.539ZM190.62 156.815C189.708 157.853 189.252 159.107 189.252 160.577C189.252 162.046 189.695 163.363 190.582 164.529C191.469 165.669 192.786 166.378 194.534 166.657L194.534 154.801C192.811 155.105 191.507 155.776 190.62 156.815Z" fill="white"></path> <path d="M206.124 138.799C206.124 141.433 205.161 143.65 203.236 145.449C201.311 147.222 198.98 148.109 196.244 148.109C193.508 148.109 191.177 147.222 189.252 145.449C187.327 143.65 186.364 141.433 186.364 138.799C186.364 137.405 186.681 136.113 187.314 134.923C187.922 133.707 188.707 132.769 189.67 132.111L186.744 132.111L186.744 128.843L205.744 128.843L205.744 132.111L202.818 132.111C203.781 132.769 204.579 133.707 205.212 134.923C205.82 136.113 206.124 137.405 206.124 138.799ZM203.122 138.305C203.122 136.43 202.463 134.885 201.146 133.669C199.829 132.453 198.195 131.845 196.244 131.845C194.293 131.845 192.659 132.453 191.342 133.669C190.025 134.885 189.366 136.43 189.366 138.305C189.366 140.205 190.025 141.763 191.342 142.979C192.659 144.195 194.293 144.803 196.244 144.803C198.195 144.803 199.829 144.195 201.146 142.979C202.463 141.763 203.122 140.205 203.122 138.305Z" fill="white"></path> <path d="M206.124 115.965C206.124 118.042 205.427 119.727 204.034 121.019C202.615 122.311 200.741 122.957 198.41 122.957L186.744 122.957L186.744 119.689L197.916 119.689C199.512 119.689 200.779 119.309 201.716 118.549C202.653 117.764 203.122 116.712 203.122 115.395C203.122 113.875 202.501 112.621 201.26 111.633C199.993 110.62 198.296 110.113 196.168 110.113L186.744 110.113L186.744 106.845L205.744 106.845L205.744 110.113L202.818 110.113C205.022 111.354 206.124 113.305 206.124 115.965Z" fill="white"></path> </g> </svg> 