<?xml version="1.0" encoding="UTF-8"?> <svg xmlns="http://www.w3.org/2000/svg" width="474" height="161" viewBox="0 0 474 161" fill="none"> <path d="M8.5666 144.897C6.16795 144.897 4.14052 144.069 2.48431 142.413C0.828104 140.757 0 138.73 0 136.331C0 133.932 0.828104 131.905 2.48431 130.249C4.14052 128.592 6.16795 127.764 8.5666 127.764C10.9081 127.764 12.907 128.621 14.5632 130.334C16.2765 131.99 17.1332 133.989 17.1332 136.331C17.1332 138.672 16.2765 140.7 14.5632 142.413C12.907 144.069 10.9081 144.897 8.5666 144.897Z" fill="#0047BB"></path> <path d="M47.1385 65.7914C40.2281 65.7914 34.6598 63.8211 30.4337 59.8805C26.2075 55.8828 23.9802 51.2282 23.7517 45.9169H36.1733C36.6302 48.6011 37.858 50.6857 39.8569 52.1706C41.8558 53.5983 44.283 54.3122 47.1385 54.3122C49.7085 54.3122 51.793 53.7697 53.3921 52.6846C54.9912 51.5423 55.7908 50.0289 55.7908 48.1443C55.7908 44.7747 53.078 42.319 47.6525 40.777L41.2276 38.8923C36.2589 37.4646 32.3754 35.2373 29.577 32.2104C26.7786 29.1835 25.3508 25.4142 25.2937 20.9025C25.2937 15.3628 27.1498 10.9938 30.862 7.7956C34.5742 4.54029 39.5142 2.91264 45.6822 2.91264C51.9073 2.91264 56.9615 4.79729 60.8451 8.5666C64.7286 12.2788 66.7846 16.5621 67.013 21.4165L54.6771 21.4165C54.0489 19.0178 52.9067 17.2474 51.2505 16.1052C49.5943 14.963 47.7382 14.3919 45.6822 14.3919C43.3978 14.3919 41.5131 14.9059 40.0282 15.9339C38.6005 16.9047 37.858 18.2754 37.8009 20.0458C37.7438 21.8734 38.3435 23.3583 39.5999 24.5005C40.8563 25.6427 42.7981 26.585 45.4252 27.3274L52.5355 29.2978C63.0438 32.2104 68.298 38.3498 68.298 47.7159C68.298 52.9701 66.3277 57.3105 62.3871 60.7372C58.5035 64.1067 53.4207 65.7914 47.1385 65.7914Z" fill="black"></path> <path d="M97.5864 65.2775C92.7891 65.2775 88.8485 63.9639 85.7645 61.3368C82.7376 58.6526 81.2242 54.7976 81.2242 49.7719V32.2104H72.5719V21.9305L81.2242 21.9305V10.0229L92.9604 10.0229V21.9305L105.039 21.9305V32.2104H92.9604L92.9604 47.4589C92.9604 50.086 93.5315 51.9707 94.6738 53.1129C95.816 54.198 97.6721 54.7405 100.242 54.7405C102.07 54.7405 103.669 54.4835 105.039 53.9695V64.3351C102.983 64.9633 100.499 65.2775 97.5864 65.2775Z" fill="black"></path> <path d="M130.218 65.7058C124.564 65.7058 119.796 63.507 115.912 59.1095C112.029 54.712 110.087 49.4578 110.087 43.347C110.087 37.2361 112.029 31.982 115.912 27.5844C119.796 23.1869 124.564 20.9882 130.218 20.9882C132.96 20.9882 135.415 21.5593 137.586 22.7015C139.756 23.8437 141.412 25.1858 142.554 26.7278V21.9305L154.291 21.9305V64.7635H142.554V59.9662C141.412 61.5081 139.756 62.8503 137.586 63.9925C135.415 65.1347 132.96 65.7058 130.218 65.7058ZM124.821 51.7422C126.82 53.9124 129.447 54.9975 132.703 54.9975C135.958 54.9975 138.557 53.9124 140.498 51.7422C142.497 49.572 143.497 46.7736 143.497 43.347C143.497 39.9203 142.497 37.1219 140.498 34.9517C138.557 32.7815 135.958 31.6964 132.703 31.6964C129.447 31.6964 126.82 32.7815 124.821 34.9517C122.88 37.1219 121.909 39.9203 121.909 43.347C121.909 46.7736 122.88 49.572 124.821 51.7422Z" fill="black"></path> <path d="M165.7 64.7635V21.9305L177.436 21.9305V26.8134C180.064 22.9299 184.147 20.9882 189.687 20.9882C194.827 20.9882 198.853 22.7015 201.766 26.1281C204.735 29.4976 206.22 34.0094 206.22 39.6633V64.7635H194.484V41.6336C194.484 38.4926 193.827 36.0654 192.514 34.352C191.2 32.5816 189.344 31.6964 186.945 31.6964C184.09 31.6964 181.777 32.7244 180.006 34.7804C178.293 36.8364 177.436 39.8632 177.436 43.861V64.7635H165.7Z" fill="black"></path> <path d="M246.195 64.7635L228.719 45.0603V64.7635H216.983V0.513994L228.719 0.513994V37.693L242.597 21.9305L256.732 21.9305L239.77 41.2053L260.672 64.7635H246.195Z" fill="black"></path> <path d="M281.61 65.7058C275.043 65.7058 269.646 63.5927 265.419 59.3665C261.25 55.1403 259.166 49.7719 259.166 43.2613C259.166 36.8649 261.279 31.5536 265.505 27.3274C269.788 23.1013 275.185 20.9882 281.696 20.9882C288.264 20.9882 293.718 23.244 298.058 27.7558C302.399 32.2104 304.397 38.3212 304.055 46.0883H270.645C270.873 48.7725 271.987 51.0283 273.986 52.8559C275.985 54.6263 278.726 55.5115 282.21 55.5115C284.323 55.5115 286.179 55.1118 287.778 54.3122C289.434 53.4556 290.605 52.2848 291.291 50.7999H303.541C302.284 55.1974 299.657 58.7954 295.659 61.5938C291.662 64.3351 286.979 65.7058 281.61 65.7058ZM281.353 30.4971C278.669 30.4971 276.413 31.211 274.586 32.6387C272.815 34.0094 271.644 35.9226 271.073 38.3783H291.205C290.577 35.6941 289.32 33.7238 287.436 32.4674C285.608 31.1538 283.581 30.4971 281.353 30.4971Z" fill="black"></path> <path d="M324.629 64.7635L305.697 21.9305H318.633L329.941 49.3436L341.248 21.9305L354.355 21.9305L335.338 64.7635L324.629 64.7635Z" fill="black"></path> <path d="M365.947 14.9059C363.948 14.9059 362.206 14.192 360.721 12.7642C359.237 11.2793 358.494 9.50892 358.494 7.45294C358.494 5.39696 359.237 3.65508 360.721 2.22732C362.206 0.742439 363.948 0 365.947 0C368.06 0 369.831 0.742439 371.258 2.22732C372.743 3.65508 373.486 5.39696 373.486 7.45294C373.486 9.50892 372.743 11.2793 371.258 12.7642C369.831 14.192 368.06 14.9059 365.947 14.9059ZM360.122 64.7635V21.9305L371.858 21.9305V64.7635H360.122Z" fill="black"></path> <path d="M402.917 65.7058C396.463 65.7058 391.095 63.5641 386.811 59.2808C382.528 54.9404 380.386 49.6291 380.386 43.347C380.386 37.0648 382.528 31.7821 386.811 27.4988C391.095 23.1584 396.463 20.9882 402.917 20.9882C408.628 20.9882 413.396 22.5873 417.223 25.7855C421.106 28.9836 423.648 33.1527 424.847 38.2927H412.683C410.798 33.838 407.543 31.6107 402.917 31.6107C399.776 31.6107 397.206 32.6958 395.207 34.866C393.208 36.9791 392.208 39.8061 392.208 43.347C392.208 46.8878 393.208 49.7434 395.207 51.9136C397.206 54.0267 399.776 55.0832 402.917 55.0832C407.543 55.0832 410.798 52.8559 412.683 48.4013H424.847C423.648 53.5412 421.106 57.7103 417.223 60.9085C413.396 64.1067 408.628 65.7058 402.917 65.7058Z" fill="black"></path> <path d="M444.557 64.7635H432.821V0.513994L444.557 0.513994V26.8134C447.184 22.9299 451.267 20.9882 456.807 20.9882C461.947 20.9882 465.973 22.7015 468.886 26.1281C471.856 29.4976 473.341 34.0094 473.341 39.6633V64.7635H461.604V41.6336C461.604 38.4926 460.948 36.0654 459.634 34.352C458.321 32.5816 456.464 31.6964 454.066 31.6964C451.21 31.6964 448.897 32.7244 447.127 34.7804C445.414 36.8364 444.557 39.8632 444.557 43.861V64.7635Z" fill="black"></path> <path d="M43.8832 143.081C38.2293 143.081 33.4605 140.883 29.577 136.485C25.6935 132.088 23.7517 126.833 23.7517 120.723C23.7517 114.612 25.6935 109.358 29.577 104.96C33.4605 100.563 38.2293 98.3638 43.8832 98.3638C46.6245 98.3638 49.0803 98.935 51.2505 100.077C53.4207 101.219 55.0769 102.561 56.2191 104.103V77.8897L67.9553 77.8897L67.9553 142.139H56.2191V137.342C55.0769 138.884 53.4207 140.226 51.2505 141.368C49.0803 142.51 46.6245 143.081 43.8832 143.081ZM38.4863 129.118C40.4851 131.288 43.1122 132.373 46.3675 132.373C49.6228 132.373 52.2214 131.288 54.1631 129.118C56.162 126.948 57.1614 124.149 57.1614 120.723C57.1614 117.296 56.162 114.498 54.1631 112.327C52.2214 110.157 49.6228 109.072 46.3675 109.072C43.1122 109.072 40.4851 110.157 38.4863 112.327C36.5445 114.498 35.5736 117.296 35.5736 120.723C35.5736 124.149 36.5445 126.948 38.4863 129.118Z" fill="black"></path> <path d="M99.0681 143.081C92.5004 143.081 87.1035 140.968 82.8773 136.742C78.7082 132.516 76.6237 127.148 76.6237 120.637C76.6237 114.241 78.7368 108.929 82.9629 104.703C87.2462 100.477 92.6432 98.3638 99.1538 98.3638C105.722 98.3638 111.176 100.62 115.516 105.131C119.856 109.586 121.855 115.697 121.513 123.464H88.1029C88.3313 126.148 89.445 128.404 91.4439 130.232C93.4427 132.002 96.1841 132.887 99.6678 132.887C101.781 132.887 103.637 132.487 105.236 131.688C106.892 130.831 108.063 129.66 108.748 128.176L120.999 128.176C119.742 132.573 117.115 136.171 113.117 138.97C109.12 141.711 104.437 143.081 99.0681 143.081ZM98.8111 107.873C96.1269 107.873 93.8711 108.587 92.0435 110.014C90.2731 111.385 89.1023 113.298 88.5312 115.754H108.663C108.035 113.07 106.778 111.1 104.893 109.843C103.066 108.53 101.038 107.873 98.8111 107.873Z" fill="black"></path> <path d="M146.595 143.081C141.113 143.081 136.572 141.711 132.974 138.97C129.376 136.228 127.463 132.744 127.235 128.518H139.485C139.714 130.346 140.513 131.745 141.884 132.716C143.254 133.63 144.939 134.087 146.938 134.087C150.65 134.087 152.506 132.944 152.506 130.66C152.506 129.518 152.078 128.661 151.221 128.09C150.422 127.462 149.051 126.891 147.109 126.377L139.057 124.321C135.402 123.35 132.66 121.722 130.833 119.438C129.062 117.096 128.177 114.298 128.177 111.042C128.177 107.33 129.719 104.303 132.803 101.962C135.944 99.5632 140.142 98.3638 145.396 98.3638C150.193 98.3638 154.191 99.5917 157.389 102.047C160.587 104.446 162.358 107.73 162.701 111.899L150.879 111.899C150.365 108.986 148.48 107.53 145.225 107.53C143.683 107.53 142.455 107.816 141.541 108.387C140.627 108.958 140.17 109.757 140.17 110.785C140.17 112.67 141.798 113.984 145.053 114.726L152.592 116.782C156.761 117.81 159.788 119.438 161.673 121.665C163.557 123.835 164.5 126.634 164.5 130.06C164.5 134.001 162.815 137.171 159.445 139.569C156.133 141.911 151.85 143.081 146.595 143.081Z" fill="black"></path> <path d="M178.804 92.2816C176.805 92.2816 175.063 91.5677 173.578 90.1399C172.093 88.655 171.351 86.8846 171.351 84.8286C171.351 82.7726 172.093 81.0308 173.578 79.603C175.063 78.1181 176.805 77.3757 178.804 77.3757C180.917 77.3757 182.687 78.1181 184.115 79.603C185.6 81.0308 186.342 82.7726 186.342 84.8286C186.342 86.8846 185.6 88.655 184.115 90.1399C182.687 91.5677 180.917 92.2816 178.804 92.2816ZM172.978 142.139V99.3062H184.715V142.139H172.978Z" fill="black"></path> <path d="M215.945 160.9C210.005 160.9 205.151 159.387 201.381 156.36C197.612 153.333 195.499 149.478 195.042 144.795H206.521C208.006 149.021 211.233 151.134 216.202 151.134C218.943 151.134 221.227 150.249 223.055 148.478C224.94 146.708 225.882 144.224 225.882 141.025V135.971C224.683 137.627 222.969 138.998 220.742 140.083C218.515 141.111 216.087 141.625 213.46 141.625C207.863 141.625 203.095 139.541 199.154 135.372C195.213 131.145 193.243 126.034 193.243 120.037C193.243 113.984 195.213 108.872 199.154 104.703C203.095 100.477 207.863 98.3638 213.46 98.3638C216.145 98.3638 218.572 98.9064 220.742 99.9915C222.969 101.019 224.683 102.39 225.882 104.103V99.3062H237.618V139.484C237.618 146.737 235.534 152.105 231.364 155.589C227.253 159.13 222.113 160.9 215.945 160.9ZM208.235 127.919C210.348 129.975 212.918 131.003 215.945 131.003C218.971 131.003 221.541 129.975 223.655 127.919C225.768 125.863 226.824 123.236 226.824 120.037C226.824 116.839 225.768 114.212 223.655 112.156C221.541 110.1 218.971 109.072 215.945 109.072C212.918 109.072 210.348 110.1 208.235 112.156C206.122 114.212 205.065 116.839 205.065 120.037C205.065 123.236 206.122 125.863 208.235 127.919Z" fill="black"></path> <path d="M248.94 142.139V99.3062H260.676V104.189C263.303 100.306 267.387 98.3638 272.927 98.3638C278.066 98.3638 282.093 100.077 285.005 103.504C287.975 106.873 289.46 111.385 289.46 117.039V142.139L277.724 142.139V119.009C277.724 115.868 277.067 113.441 275.754 111.728C274.44 109.957 272.584 109.072 270.185 109.072C267.33 109.072 265.017 110.1 263.246 112.156C261.533 114.212 260.676 117.239 260.676 121.237V142.139H248.94Z" fill="black"></path> <path d="M321.987 113.386C320.167 113.386 318.635 112.721 317.393 111.391C316.167 110.061 315.555 108.451 315.555 106.56C315.555 104.67 316.167 103.06 317.393 101.73C318.635 100.4 320.167 99.7348 321.987 99.7348C322.949 99.7348 323.842 99.9536 324.665 100.391C325.505 100.811 326.152 101.354 326.607 102.019V99.9974H328.865V113.124H326.607V111.102C326.152 111.767 325.505 112.319 324.665 112.756C323.842 113.176 322.949 113.386 321.987 113.386ZM322.328 111.312C323.623 111.312 324.691 110.857 325.531 109.947C326.371 109.037 326.791 107.908 326.791 106.56C326.791 105.213 326.371 104.084 325.531 103.174C324.691 102.264 323.623 101.809 322.328 101.809C321.015 101.809 319.939 102.264 319.099 103.174C318.259 104.084 317.839 105.213 317.839 106.56C317.839 107.908 318.259 109.037 319.099 109.947C319.939 110.857 321.015 111.312 322.328 111.312Z" fill="#898989"></path> <path d="M333.115 113.124V99.9974H335.372V102.544C335.617 101.739 336.09 101.091 336.79 100.601C337.508 100.111 338.26 99.8661 339.048 99.8661C339.433 99.8661 339.774 99.9011 340.072 99.9711V102.308C339.757 102.168 339.345 102.098 338.838 102.098C337.928 102.098 337.123 102.491 336.423 103.279C335.723 104.066 335.372 105.178 335.372 106.613V113.124H333.115Z" fill="#898989"></path> <path d="M348.095 113.386C346.118 113.386 344.481 112.73 343.186 111.417C341.891 110.087 341.243 108.468 341.243 106.56C341.243 104.653 341.891 103.043 343.186 101.73C344.481 100.4 346.118 99.7348 348.095 99.7348C349.723 99.7348 351.132 100.19 352.322 101.1C353.512 101.993 354.308 103.165 354.711 104.618H352.296C351.981 103.76 351.456 103.078 350.721 102.57C349.985 102.063 349.11 101.809 348.095 101.809C346.748 101.809 345.645 102.264 344.787 103.174C343.947 104.084 343.527 105.213 343.527 106.56C343.527 107.908 343.947 109.037 344.787 109.947C345.645 110.857 346.748 111.312 348.095 111.312C349.11 111.312 349.985 111.058 350.721 110.551C351.456 110.043 351.981 109.361 352.296 108.503H354.711C354.326 109.956 353.538 111.137 352.348 112.047C351.158 112.94 349.74 113.386 348.095 113.386Z" fill="#898989"></path> <path d="M359.959 113.124H357.701V93.4342L359.959 93.4342V102.019C360.851 100.496 362.242 99.7348 364.133 99.7348C365.62 99.7348 366.819 100.216 367.729 101.179C368.639 102.141 369.094 103.428 369.094 105.038V113.124H366.863V105.379C366.863 104.277 366.583 103.41 366.023 102.78C365.463 102.133 364.71 101.809 363.765 101.809C362.68 101.809 361.77 102.238 361.035 103.095C360.317 103.953 359.959 105.125 359.959 106.613V113.124Z" fill="#898989"></path> <path d="M375.444 96.0332C375.146 96.3308 374.77 96.4795 374.315 96.4795C373.86 96.4795 373.475 96.3308 373.16 96.0332C372.845 95.7182 372.687 95.3332 372.687 94.8781C372.687 94.4406 372.845 94.0643 373.16 93.7493C373.475 93.4342 373.86 93.2767 374.315 93.2767C374.77 93.2767 375.146 93.4342 375.444 93.7493C375.742 94.0643 375.89 94.4406 375.89 94.8781C375.89 95.3332 375.742 95.7182 375.444 96.0332ZM373.16 113.124V99.9974H375.418V113.124H373.16Z" fill="#898989"></path> <path d="M384.79 113.255C383.583 113.255 382.612 112.914 381.876 112.231C381.141 111.548 380.774 110.551 380.774 109.238V102.071H377.991V99.9974H380.774V96.3483H383.032V99.9974H386.812V102.071H383.032V108.949C383.032 109.772 383.207 110.35 383.557 110.682C383.907 111.015 384.458 111.181 385.211 111.181C385.876 111.181 386.409 111.093 386.812 110.918V112.94C386.182 113.15 385.508 113.255 384.79 113.255Z" fill="#898989"></path> <path d="M395.108 113.386C393.201 113.386 391.617 112.739 390.357 111.443C389.114 110.148 388.493 108.521 388.493 106.56C388.493 104.583 389.097 102.955 390.304 101.678C391.529 100.382 393.148 99.7348 395.161 99.7348C397.191 99.7348 398.784 100.452 399.939 101.888C401.094 103.323 401.601 105.082 401.461 107.164H390.777C390.812 108.354 391.249 109.352 392.089 110.157C392.929 110.945 393.944 111.338 395.135 111.338C396.92 111.338 398.189 110.603 398.941 109.133H401.251C400.919 110.358 400.21 111.373 399.125 112.179C398.04 112.984 396.701 113.386 395.108 113.386ZM397.681 102.675C396.964 102.045 396.097 101.73 395.082 101.73C394.067 101.73 393.157 102.036 392.352 102.649C391.564 103.261 391.074 104.172 390.882 105.379H399.072C398.862 104.189 398.399 103.288 397.681 102.675Z" fill="#898989"></path> <path d="M410.547 113.386C408.57 113.386 406.933 112.73 405.638 111.417C404.343 110.087 403.696 108.468 403.696 106.56C403.696 104.653 404.343 103.043 405.638 101.73C406.933 100.4 408.57 99.7348 410.547 99.7348C412.175 99.7348 413.584 100.19 414.774 101.1C415.964 101.993 416.761 103.165 417.163 104.618H414.748C414.433 103.76 413.908 103.078 413.173 102.57C412.438 102.063 411.563 101.809 410.547 101.809C409.2 101.809 408.097 102.264 407.24 103.174C406.4 104.084 405.98 105.213 405.98 106.56C405.98 107.908 406.4 109.037 407.24 109.947C408.097 110.857 409.2 111.312 410.547 111.312C411.563 111.312 412.438 111.058 413.173 110.551C413.908 110.043 414.433 109.361 414.748 108.503H417.163C416.778 109.956 415.99 111.137 414.8 112.047C413.61 112.94 412.193 113.386 410.547 113.386Z" fill="#898989"></path> <path d="M425.118 113.255C423.91 113.255 422.939 112.914 422.204 112.231C421.469 111.548 421.101 110.551 421.101 109.238V102.071H418.318V99.9974H421.101V96.3483H423.359V99.9974H427.139V102.071H423.359V108.949C423.359 109.772 423.534 110.35 423.884 110.682C424.234 111.015 424.785 111.181 425.538 111.181C426.203 111.181 426.737 111.093 427.139 110.918V112.94C426.509 113.15 425.835 113.255 425.118 113.255Z" fill="#898989"></path> <path d="M434.67 113.386C433.235 113.386 432.071 112.905 431.178 111.942C430.286 110.962 429.84 109.667 429.84 108.057V99.9974H432.097V107.716C432.097 108.818 432.36 109.693 432.885 110.341C433.427 110.988 434.154 111.312 435.064 111.312C436.114 111.312 436.98 110.883 437.663 110.026C438.363 109.151 438.713 107.978 438.713 106.508V99.9974H440.971V113.124H438.713V111.102C437.855 112.625 436.508 113.386 434.67 113.386Z" fill="#898989"></path> <path d="M445.226 113.124V99.9974L447.484 99.9974V102.544C447.729 101.739 448.201 101.091 448.901 100.601C449.619 100.111 450.372 99.8661 451.159 99.8661C451.544 99.8661 451.886 99.9011 452.183 99.9711V102.308C451.868 102.168 451.457 102.098 450.949 102.098C450.039 102.098 449.234 102.491 448.534 103.279C447.834 104.066 447.484 105.178 447.484 106.613V113.124H445.226Z" fill="#898989"></path> <path d="M459.812 113.386C457.992 113.386 456.461 112.721 455.218 111.391C453.993 110.061 453.38 108.451 453.38 106.56C453.38 104.67 453.993 103.06 455.218 101.73C456.461 100.4 457.992 99.7348 459.812 99.7348C460.775 99.7348 461.667 99.9536 462.49 100.391C463.33 100.811 463.978 101.354 464.433 102.019V99.9974H466.69V113.124H464.433V111.102C463.978 111.767 463.33 112.319 462.49 112.756C461.667 113.176 460.775 113.386 459.812 113.386ZM460.154 111.312C461.449 111.312 462.516 110.857 463.356 109.947C464.196 109.037 464.616 107.908 464.616 106.56C464.616 105.213 464.196 104.084 463.356 103.174C462.516 102.264 461.449 101.809 460.154 101.809C458.841 101.809 457.765 102.264 456.924 103.174C456.084 104.084 455.664 105.213 455.664 106.56C455.664 107.908 456.084 109.037 456.924 109.947C457.765 110.857 458.841 111.312 460.154 111.312Z" fill="#898989"></path> <path d="M470.94 113.124V93.4342H473.198V113.124H470.94Z" fill="#898989"></path> <path d="M323.457 142.402C322.494 142.402 321.593 142.192 320.753 141.772C319.93 141.334 319.292 140.783 318.836 140.118V142.139H316.579V122.45H318.836V131.035C319.292 130.37 319.93 129.827 320.753 129.407C321.593 128.97 322.494 128.751 323.457 128.751C325.277 128.751 326.8 129.416 328.025 130.746C329.267 132.076 329.889 133.686 329.889 135.576C329.889 137.467 329.267 139.077 328.025 140.407C326.8 141.737 325.277 142.402 323.457 142.402ZM319.913 138.963C320.753 139.873 321.821 140.328 323.116 140.328C324.411 140.328 325.478 139.873 326.318 138.963C327.159 138.053 327.579 136.924 327.579 135.576C327.579 134.229 327.159 133.1 326.318 132.19C325.478 131.28 324.411 130.825 323.116 130.825C321.821 130.825 320.753 131.28 319.913 132.19C319.073 133.1 318.653 134.229 318.653 135.576C318.653 136.924 319.073 138.053 319.913 138.963Z" fill="#898989"></path> <path d="M337.761 142.402C336.326 142.402 335.162 141.921 334.27 140.958C333.377 139.978 332.931 138.683 332.931 137.073V129.013H335.189V136.731C335.189 137.834 335.451 138.709 335.976 139.357C336.519 140.004 337.245 140.328 338.155 140.328C339.205 140.328 340.072 139.899 340.754 139.042C341.454 138.167 341.804 136.994 341.804 135.524V129.013H344.062V142.139H341.804V140.118C340.947 141.641 339.599 142.402 337.761 142.402Z" fill="#898989"></path> <path d="M348.318 142.139V129.013H350.575V131.56C350.82 130.755 351.293 130.107 351.993 129.617C352.711 129.127 353.463 128.882 354.251 128.882C354.636 128.882 354.977 128.917 355.275 128.987V131.323C354.959 131.183 354.548 131.113 354.041 131.113C353.131 131.113 352.325 131.507 351.625 132.295C350.925 133.082 350.575 134.194 350.575 135.629V142.139H348.318Z" fill="#898989"></path> <path d="M363.062 142.402C361.154 142.402 359.57 141.754 358.31 140.459C357.068 139.164 356.446 137.537 356.446 135.576C356.446 133.599 357.05 131.971 358.258 130.693C359.483 129.398 361.102 128.751 363.114 128.751C365.145 128.751 366.737 129.468 367.892 130.903C369.047 132.339 369.555 134.097 369.415 136.18H358.73C358.765 137.37 359.203 138.368 360.043 139.173C360.883 139.961 361.898 140.354 363.088 140.354C364.873 140.354 366.142 139.619 366.895 138.149H369.205C368.872 139.374 368.164 140.389 367.078 141.194C365.993 141.999 364.655 142.402 363.062 142.402ZM365.635 131.691C364.917 131.061 364.051 130.746 363.036 130.746C362.021 130.746 361.11 131.052 360.305 131.665C359.518 132.277 359.028 133.187 358.835 134.395H367.026C366.816 133.205 366.352 132.304 365.635 131.691Z" fill="#898989"></path> <path d="M378.081 142.402C376.261 142.402 374.729 141.737 373.487 140.407C372.262 139.077 371.649 137.467 371.649 135.576C371.649 133.686 372.262 132.076 373.487 130.746C374.729 129.416 376.261 128.751 378.081 128.751C379.044 128.751 379.936 128.97 380.759 129.407C381.599 129.827 382.246 130.37 382.701 131.035V129.013H384.959V142.139H382.701V140.118C382.246 140.783 381.599 141.334 380.759 141.772C379.936 142.192 379.044 142.402 378.081 142.402ZM378.422 140.328C379.717 140.328 380.785 139.873 381.625 138.963C382.465 138.053 382.885 136.924 382.885 135.576C382.885 134.229 382.465 133.1 381.625 132.19C380.785 131.28 379.717 130.825 378.422 130.825C377.11 130.825 376.033 131.28 375.193 132.19C374.353 133.1 373.933 134.229 373.933 135.576C373.933 136.924 374.353 138.053 375.193 138.963C376.033 139.873 377.11 140.328 378.422 140.328Z" fill="#898989"></path> <path d="M393.856 142.402C392.42 142.402 391.257 141.921 390.364 140.958C389.471 139.978 389.025 138.683 389.025 137.073V129.013H391.283V136.731C391.283 137.834 391.545 138.709 392.07 139.357C392.613 140.004 393.339 140.328 394.249 140.328C395.299 140.328 396.166 139.899 396.848 139.042C397.548 138.167 397.898 136.994 397.898 135.524V129.013H400.156V142.139H397.898V140.118C397.041 141.641 395.693 142.402 393.856 142.402Z" fill="#898989"></path> </svg> 